<svg id="globe-img" xmlns="http://www.w3.org/2000/svg" width="619.917" height="619.918" viewBox="0 0 619.917 619.918">
  <line id="Line_2" data-name="Line 2" y1="485.796" x2="485.796" transform="translate(53.332 53.332)" fill="none" stroke="#b76d7a" stroke-width="10"/>
  <circle id="Ellipse_1" data-name="Ellipse 1" cx="295" cy="295" r="295" fill="#b76d7a"/>
  <g id="Subtraction_1" data-name="Subtraction 1" transform="translate(64.829 64.829)" fill="none">
    <path d="M230.872,555.088a326.61,326.61,0,0,1-65.926-6.706A322.429,322.429,0,0,1,48.171,498.749,326.549,326.549,0,0,1,0,458.5L458.5,0a324.755,324.755,0,0,1,70.657,103.6,322.555,322.555,0,0,1,19.226,61.346,327.4,327.4,0,0,1,.119,131.267,322.439,322.439,0,0,1-48.784,115.931A325.163,325.163,0,0,1,357.072,529.61,322.582,322.582,0,0,1,296.213,548.5,326.6,326.6,0,0,1,230.872,555.088Z" stroke="none"/>
    <path d="M 230.8721771240234 545.088134765625 C 252.1984252929688 545.088134765625 273.5078430175781 542.9403076171875 294.20849609375 538.7042236328125 C 314.3770751953125 534.5773315429688 334.2167663574219 528.4187622070313 353.1763305664063 520.3997192382813 C 371.7927551269531 512.5255737304688 389.7491760253906 502.7789916992188 406.5466003417969 491.4308166503906 C 423.1871032714844 480.1886596679688 438.8353271484375 467.2775573730469 453.0565795898438 453.056396484375 C 467.2783508300781 438.8344116210938 480.1894226074219 423.1861572265625 491.4309997558594 406.546142578125 C 502.7789916992188 389.7489929199219 512.5255126953125 371.7926635742188 520.399658203125 353.1760559082031 C 528.4181518554688 334.2184143066406 534.5767822265625 314.3788146972656 538.7042846679688 294.2083129882813 C 542.9402465820313 273.5072326660156 545.0880737304688 252.1979064941406 545.0880737304688 230.8724060058594 C 545.0880737304688 209.3505706787109 542.9013671875 187.8502349853516 538.5886840820313 166.9686431884766 C 534.3871459960938 146.6256561279297 528.1195678710938 126.6269836425781 519.9601440429688 107.5281524658203 C 511.94775390625 88.7733154296875 502.0334167480469 70.70114898681641 490.4924926757813 53.81348419189453 C 480.9209289550781 39.80742645263672 470.1654357910156 26.51945114135742 458.437744140625 14.2031717300415 L 14.20315074920654 458.4376831054688 C 26.51966667175293 470.1656188964844 39.80771636962891 480.9212036132813 53.81342315673828 490.4925537109375 C 70.70108795166016 502.0333251953125 88.77325439453125 511.9477233886719 107.5280075073242 519.960205078125 C 126.6270904541016 528.1197509765625 146.6257629394531 534.38720703125 166.968505859375 538.5887451171875 C 187.8499298095703 542.9014282226563 209.3502502441406 545.088134765625 230.8721771240234 545.088134765625 M 230.8721771240234 555.088134765625 C 208.6722564697266 555.088134765625 186.4913330078125 552.8319091796875 164.9458465576172 548.382080078125 C 143.9510955810547 544.0458984375 123.3110885620117 537.577392578125 103.5993423461914 529.1561279296875 C 84.24559020996094 520.8877563476563 65.59683990478516 510.6572265625 48.17125701904297 498.7488098144531 C 30.90792274475098 486.9512329101563 14.70083999633789 473.4090576171875 -7.698567787883803e-05 458.4987487792969 L 458.4987487792969 -1.595052162883803e-05 C 473.4109191894531 14.7025671005249 486.9524230957031 30.90973472595215 498.7487487792969 48.17131805419922 C 510.6571655273438 65.59673309326172 520.8876953125 84.24539947509766 529.1560668945313 103.5994873046875 C 537.5772705078125 123.3108978271484 544.0457763671875 143.9508209228516 548.3820190429688 164.9459838867188 C 552.8318481445313 186.4916534423828 555.0880737304688 208.6724853515625 555.0880737304688 230.8724060058594 C 555.0880737304688 252.8700714111328 552.8719482421875 274.8538208007813 548.5012817382813 296.2130737304688 C 544.2415161132813 317.0295715332031 537.8856201171875 337.5054016113281 529.6096801757813 357.0716552734375 C 521.4840698242188 376.2826538085938 511.4268493652344 394.8118286132813 499.7172546386719 412.1442260742188 C 488.1190185546875 429.3120727539063 474.7990112304688 445.4559020996094 460.127685546875 460.1274108886719 C 445.4564208984375 474.7986450195313 429.3125915527344 488.1185607910156 412.1446838378906 499.7170715332031 C 394.81201171875 511.4268188476563 376.2827453613281 521.484130859375 357.0718383789063 529.6097412109375 C 337.5054321289063 537.885498046875 317.0296630859375 544.2417602539063 296.2131652832031 548.501220703125 C 274.8539123535156 552.8720703125 252.8700103759766 555.088134765625 230.8721771240234 555.088134765625 Z" stroke="none" fill="#b76d7a"/>
  </g>
</svg>
